<svg xmlns="http://www.w3.org/2000/svg" viewBox="0 0 204.93 134.5"><defs><style>.cls-1{fill:#c1272d;}.cls-1,.cls-2,.cls-3,.cls-4,.cls-5,.cls-6{stroke:#000;stroke-miterlimit:10;}.cls-2{fill:#fbb03b;}.cls-3,.cls-4{fill:none;}.cls-4,.cls-6{stroke-width:0.25px;}.cls-5{fill:#fff;stroke-width:0.5px;}</style></defs><title>cigs</title><g id="Layer_2" data-name="Layer 2"><g id="shmoke"><polyline class="cls-1" points="57.64 0.5 173.88 0.5 186.81 40.71 120.76 18.19 67.92 42.38 67.92 73.6 65.48 74.96 57.64 42.32 57.64 0.5"/><polygon class="cls-2" points="33.6 106.94 33.68 108.73 18.8 117.04 7.85 123.17 7.56 121.25 6.51 118.23 4.68 114.69 1.36 110.91 5.25 108.73 20.11 100.4 26.63 96.76 28.49 98.15 31.12 100.9 32.67 104.13 33.6 106.94"/><rect class="cls-3" x="79.66" y="92.18" width="124.77" height="41.82"/><polyline class="cls-3" points="57.64 42.32 57.64 0.5 173.88 0.5"/><line class="cls-3" x1="77.7" y1="84.03" x2="79.66" y2="92.18"/><line class="cls-3" x1="57.64" y1="0.5" x2="74.33" y2="70"/><line class="cls-3" x1="173.6" y1="0.5" x2="204.43" y2="92.18"/><line class="cls-3" x1="68.85" y1="88.99" x2="79.66" y2="134"/><line class="cls-3" x1="57.64" y1="42.32" x2="65.48" y2="74.96"/><line class="cls-3" x1="67.92" y1="73.6" x2="67.92" y2="42.38"/><line class="cls-3" x1="120.76" y1="18.19" x2="67.92" y2="42.32"/><line class="cls-3" x1="186.81" y1="40.71" x2="120.76" y2="18.19"/><line class="cls-4" x1="64.98" y1="29.45" x2="183.88" y2="29.45"/><line class="cls-4" x1="64.25" y1="69.82" x2="64.25" y2="28.65"/><ellipse class="cls-3" cx="4.14" cy="117.3" rx="1.75" ry="7.2" transform="translate(-53.11 14.84) rotate(-27.17)"/><line class="cls-3" x1="0.43" y1="111.43" x2="85.93" y2="63.5"/><line class="cls-3" x1="7.85" y1="123.18" x2="92.93" y2="75.5"/><path class="cls-3" d="M92.84,75.55c.79-.51.15-3.64-1.84-7.07s-4.41-5.41-5.21-4.91"/><path class="cls-3" d="M33.68,108.73c.79-.5.15-3.64-1.84-7.07s-4.42-5.4-5.21-4.9"/><path class="cls-5" d="M153.5,7.87H83.55c-.39,0-1.6,1.54-1.21,3.13h0c.27,1.14,1.29,1.94,3.58,1.94h70c.52,0,1.72-1.54,1.34-3.14h0C156.94,8.67,155.92,7.87,153.5,7.87Z"/><path d="M102.38,75.07h2.37c.52,1.84.76,2.73,1.29,4.51a5.15,5.15,0,0,0,.38.91,4.12,4.12,0,0,0,1.84,2,2.36,2.36,0,0,0,.63.13c.82,0,1.14-1,.78-2.22l0-.17a11.56,11.56,0,0,0-1.39-3c-1-1.56-2.81-4-6.1-8.35A15.06,15.06,0,0,1,100.88,67a23.57,23.57,0,0,1-1.95-4.34,9.56,9.56,0,0,1,.23-6.33c.42-.92,2.27-2,4.17-.25l.8.85c0-.69.06-1.06.08-1.82h1.39c1.08,4.51,1.16,5.17,2.19,8.62h-2.41c-.5-1.64-.58-1.95-1-3.52,0,0-1.11-2.32-2.36-2.13s-.69,2.31-.69,2.31.23,1.71,5.27,7.12a26.91,26.91,0,0,1,5.49,10.25,8.27,8.27,0,0,1-.06,5.89,4.27,4.27,0,0,1-.67,1,1.25,1.25,0,0,1-.88.42c-.86.05-2.59,0-3.36-1.3-.06.51-.09.78-.15,1.31h-1.67C104,80.73,103.52,79.07,102.38,75.07Z"/><path d="M106.06,55.06l.71,3h1c2.67,11.08,3.67,14.31,6.79,24.47h-1l.8,2.62h5.48c-.33-1.07-.5-1.59-.81-2.6h-.67c-1.48-4.76-2.06-6.8-3.29-11.57l2.71,0c1.23,4.76,1.8,6.79,3.27,11.54h-.64c.31,1,.47,1.53.81,2.6h5.48c-.34-1.06-.51-1.57-.82-2.57l-1,0c-3.18-10.1-4.2-13.6-6.82-24.48h1.06c-.26-1.11-.4-1.71-.69-3H113c.28,1.27.41,1.85.66,2.93l.67,0c1.11,4.64,1.59,5.77,2.77,10.09l-2.76-.05c-1.18-4.32-1.65-5.4-2.78-10.06h.65c-.26-1.08-.4-1.67-.7-2.94Z"/><path d="M119.22,55c.29,1.27.42,1.85.68,2.94h1c2.61,11,3.63,14.49,6.81,24.6h-1c.32,1,.48,1.54.83,2.61h3.72c-.34-1-.5-1.55-.82-2.54h-1c-2.44-7.73-3.4-12.56-5.33-19,3.07,7.29,4.47,12.38,8.37,21.56H135c-2-9-2-12.7-3.66-21.25,2.27,7.55,2.81,11.12,5.23,18.69l-1,0c.32,1,.49,1.54.85,2.6h5.8c-.36-1.06-.53-1.57-.85-2.57l-1,0a252.89,252.89,0,0,1-6.82-24.67l1,0c-.26-1.09-.39-1.67-.65-2.91h-5.78c.95,7.23,1.36,8.39,2.36,14.73-2.24-6.35-3.23-7.43-5.46-14.73Z"/><path class="cls-6" d="M139.38,54.81c-3,0-3.6,6.63-1.45,15.31s6.8,15.08,9.84,15.08,3.32-6.36,1.18-15.08S142.42,54.81,139.38,54.81Zm8.12,25.31c.34,1.11,0,2-.75,2s-1.7-.93-2-2c-2.35-7.8-3.42-12-5.46-19.84-.3-1.12.09-2.11.86-2.12s1.63,1,1.92,2.1C144.09,68.1,145.14,72.31,147.5,80.12Z"/><path class="cls-6" d="M144.93,55c.22,1.14.34,1.67.58,2.71h1a230.15,230.15,0,0,0,6.83,24.75h-1c.33,1,.5,1.5.87,2.54h5.44c-.37-1-.54-1.5-.87-2.47h-.68c-1.54-4.75-2-6.82-3.15-11.73,2.2,4.89,3.13,7,5.69,11.67h-.45c.32,1,.5,1.5.87,2.54h5.48c-.38-1-.56-1.52-.89-2.5h-.84c-4.08-7.33-5.24-10.9-9.1-18.29.35-2.68.6-3.76,1.12-6.58l1.23,0c-.23-1-.33-1.57-.53-2.68h-3.7c.19,1.11.3,1.64.52,2.66h1.34c-.88,3.86-1.2,5.4-1.89,9-1.08-3.64-1.63-5.14-2.53-9l.95,0c-.25-1-.37-1.56-.59-2.67Z"/><path class="cls-6" d="M157.66,55c.2,1.09.31,1.62.54,2.63h1A205.37,205.37,0,0,0,166,82.49h-1c.34,1,.52,1.51.91,2.56h9.92a65,65,0,0,1-2.8-9h-2.74c.67,2.6,1,3.79,1.89,6.41l-2.38,0a106.08,106.08,0,0,1-3.18-11.64l1.38,0c.31,1.26.46,1.87.78,3.07h2c-.85-3.46-1.26-5.27-2.32-8.74h-2c.39,1.22.59,1.83.94,3.06H166c-1.19-4.31-2-6.23-3-10.72h2.35c.53,2.33.81,3.3,1.47,5.58l2.78,0a56.69,56.69,0,0,1-2-8.17Z"/></g></g></svg>