<svg xmlns="http://www.w3.org/2000/svg" viewBox="0 0 137.73 119.5"><defs><style>.cls-1{fill:#754c24;stroke:#754c24;}.cls-1,.cls-2,.cls-3{stroke-miterlimit:10;}.cls-1,.cls-3{fill-rule:evenodd;}.cls-2,.cls-3{fill:none;stroke:#000;}</style></defs><title>coffee</title><g id="Layer_2" data-name="Layer 2"><g id="coffee"><polygon class="cls-1" points="94.89 19 84.89 20 58.89 21 48.89 21 33.89 20 19.89 18 13.89 17 19.89 13 31.89 10 58.33 9 78.89 10 93.89 12 99.89 14 102.89 17 99.89 18 94.89 19"/><ellipse class="cls-2" cx="58.89" cy="11" rx="54.5" ry="10.5"/><path class="cls-3" d="M90.89,114c-3,3.19-17.53,5-33,5-15.2,0-27.73-1.89-31-5"/><path class="cls-3" d="M26.89,114S-11.61,80.77,4.39,10.77"/><path class="cls-3" d="M91,114s38.35-33,22.35-103"/><path class="cls-3" d="M116.49,29.29s5.87-13.07,15.16-7.28a11.37,11.37,0,0,1,5,7.61c2.24,11.67-1.79,44.38-24.57,49.86"/><path class="cls-3" d="M117.2,39s5.1-11.15,10.82-7.59c1.65,1,1.93,5.13,2,7.09.38,7.3-1.1,27.3-15.12,30.67"/><path class="cls-3" d="M13.77,17c2.12-4,19.76-8.5,44.12-8.5s42.88,3.5,45,8.5"/></g></g></svg>