<svg xmlns="http://www.w3.org/2000/svg" viewBox="0 0 105.81 103"><defs><style>.cls-1{fill:#f2f2f2;}.cls-1,.cls-3,.cls-4{stroke:#000;}.cls-1,.cls-2,.cls-3,.cls-4{stroke-miterlimit:10;}.cls-1,.cls-2,.cls-4{fill-rule:evenodd;}.cls-2{fill:#754c24;stroke:#754c24;}.cls-3,.cls-4{fill:none;}</style></defs><title>coffee</title><g id="Layer_2" data-name="Layer 2"><g id="background"><g id="bad_habit"><g id="coffee"><path class="cls-1" d="M95.52,62.31,93.2,64.2a28.27,28.27,0,0,1-7.29,4.28h0l2.17-8.91h0a21.45,21.45,0,0,0,8.54-9.72h0a30.85,30.85,0,0,0,2.44-9.2h0a50.85,50.85,0,0,0-.15-11.89l-.09-.67h0A3.34,3.34,0,0,0,96,26.47a3.61,3.61,0,0,0-1.45.66,10.69,10.69,0,0,0-2.72,2.81l-.55.8h0a115.16,115.16,0,0,0-1.8,15l-.25,4.68L86.89,63.93l-1.12,3.56a118.19,118.19,0,0,1-6.85,17h0A51.74,51.74,0,0,1,73.64,93h0a25.07,25.07,0,0,1-10,7.78h0a181.53,181.53,0,0,1-19.76,1.65l-1.59,0h0a106.38,106.38,0,0,1-19.67-3.15L22,99.16h0A116.41,116.41,0,0,1,8.71,79.09l-.43-.83-.7-2.14A162.45,162.45,0,0,1,1.43,50.69h0a51.7,51.7,0,0,1-.61-7h0A178.15,178.15,0,0,1,3.48,9.54h0l5-2.78a40.39,40.39,0,0,1,13.1-4.48h0Q27.37,1.37,33.18.94l.7-.06Q39.09.51,44.3.5h.41Q50.83.5,56.94,1L58.13,1q6,.45,11.9,1.32l2.88.43,4,1.14a24.4,24.4,0,0,1,10,5.61h0l2.38,15.75L91.78,21h0c2.35-2.05,4.46-4.65,8.57-2.12h0a1.46,1.46,0,0,1,.83.54h0a24.49,24.49,0,0,1,4.11,9l0,.08h0a138.93,138.93,0,0,1-2.82,20.32l-.11.53-.62,1.48a62.85,62.85,0,0,1-6.24,11.45Z"/><polygon class="cls-2" points="72.74 16.42 65.08 17.29 45.19 18.15 37.53 18.15 26.05 17.29 15.34 15.56 10.75 14.7 15.34 11.26 24.52 8.68 44.76 7.82 60.49 8.68 71.97 10.4 76.56 12.12 78.86 14.7 76.56 15.56 72.74 16.42"/><ellipse class="cls-3" cx="45.19" cy="9.54" rx="41.71" ry="9.04"/><path class="cls-4" d="M69.68,98.2c-2.29,2.74-13.42,4.3-25.26,4.3-11.63,0-21.22-1.63-23.72-4.3"/><path class="cls-4" d="M20.7,98.2S-8.77,69.59,3.48,9.34"/><path class="cls-4" d="M69.79,98.2S99.14,69.79,86.89,9.54"/><path class="cls-4" d="M89.27,25.29S93.75,14,100.87,19a10,10,0,0,1,3.85,6.55c1.71,10.05-1.37,38.21-18.81,42.92"/><path class="cls-4" d="M89.81,33.6s3.9-9.59,8.28-6.52c1.26.88,1.48,4.41,1.56,6.09.29,6.29-.84,23.5-11.57,26.4"/><path class="cls-4" d="M10.66,14.7c1.62-3.44,15.11-7.31,33.76-7.31s32.82,3,34.44,7.31"/></g></g></g></g></svg>