<svg xmlns="http://www.w3.org/2000/svg" viewBox="0 0 57 102.09"><defs><style>.cls-1{fill:#ff931e;stroke:#f7931e;}.cls-1,.cls-2,.cls-3{stroke-miterlimit:10;}.cls-2{fill:none;}.cls-2,.cls-3{stroke:#000;}.cls-3{fill:#f2f2f2;}</style></defs><title>pills</title><g id="Layer_2" data-name="Layer 2"><g id="pills"><polygon class="cls-1" points="5.5 17.78 15 18.13 28.5 18.5 42.69 18.09 52.5 17.07 52.5 26.69 52.5 97.5 48.05 99.89 39.71 101.14 29 101.59 19.32 101.22 8.25 99.42 5.5 97.5 5.5 25.94 5.5 17.78"/><line class="cls-2" x1="52.5" y1="17.5" x2="52.5" y2="98.5"/><line class="cls-2" x1="5.5" y1="17" x2="5.5" y2="98"/><ellipse class="cls-2" cx="29" cy="97.5" rx="23.5" ry="4.09"/><line class="cls-2" x1="0.5" y1="3.5" x2="0.5" y2="15.5"/><line class="cls-2" x1="56.5" y1="15.5" x2="56.5" y2="3.5"/><ellipse class="cls-2" cx="28.5" cy="3.5" rx="28" ry="3"/><path class="cls-2" d="M56.5,15.5c0,1.66-12.54,3-28,3s-28-1.34-28-3"/><path class="cls-3" d="M5.5,78.19C5.5,80.44,16,82.27,29,82.27s23.5-1.83,23.5-4.08V32.73C52.5,35,42,36.81,29,36.81S5.5,35,5.5,32.73Z"/></g></g></svg>