<svg xmlns="http://www.w3.org/2000/svg" viewBox="0 0 77.11 70.12"><defs><style>.cls-1{fill:#999;fill-rule:evenodd;}.cls-2,.cls-4{fill:none;stroke:#000;stroke-miterlimit:10;}.cls-2{stroke-width:0.75px;}.cls-3{fill:#666;}.cls-4{stroke-width:0.5px;}</style></defs><title>snorter</title><g id="Layer_2" data-name="Layer 2"><g id="cocaine"><polygon class="cls-1" points="61 26.12 37 47.12 13 68.12 8 70.12 1 64.12 2 57.12 36 26.12 63 2.12 68 0.12 73 1.12 76 5.12 77 8.12 76 11.12 75 13.12 61 26.12"/><line class="cls-2" x1="2.5" y1="56.62" x2="13.5" y2="67.62"/><path class="cls-3" d="M8,69.87a7.76,7.76,0,1,1,5.18-2A7.78,7.78,0,0,1,8,69.87Z"/><path d="M8,54.62H8A7.5,7.5,0,1,1,2.42,67.13,7.5,7.5,0,0,1,8,54.62m0-.5A8,8,0,1,0,14,56.77,7.95,7.95,0,0,0,8,54.12Z"/><path class="cls-4" d="M62.5,2.62c3.26-3,8.74-3.37,11.91.1s3.35,7.92.09,10.9"/><line class="cls-4" x1="2.5" y1="56.62" x2="62.5" y2="2.62"/><line class="cls-4" x1="13.5" y1="67.62" x2="74.5" y2="13.62"/></g></g></svg>