<svg xmlns="http://www.w3.org/2000/svg" viewBox="0 0 205.8 168.4"><defs><style>.cls-1{fill:#4d4d4d;}.cls-1,.cls-2{stroke:#000;stroke-miterlimit:10;fill-rule:evenodd;}.cls-2{fill:none;}</style></defs><title>weights</title><g id="Layer_2" data-name="Layer 2"><g id="bong"><path class="cls-1" d="M185.37,47.32l-5.3-1.74-6.84-2.36h0a35.31,35.31,0,0,0,2.43-8.6h0a1,1,0,0,0,0-.43l-.35-1.48a22.6,22.6,0,0,0-3.68-8h0l-.59-.45a46.62,46.62,0,0,0-9.22-5.41h0c-.4-.17-.8-.32-1.21-.46l-4.19-1.74a13.62,13.62,0,0,0-3.07-.87L150,14.89a15.2,15.2,0,0,0-1.58-.26,46.73,46.73,0,0,0-7.1-.36h0a64.46,64.46,0,0,0-7.72.64h0q-2.64.38-5.23,1h0c-.84.2-1.68.44-2.5.72h0q-4.34,1.44-8.52,3.29l-.71.32h0a15.67,15.67,0,0,0-4.46,7h0a6.7,6.7,0,0,0-.26,2.56h0a35,35,0,0,0,2,8.92h0a7.23,7.23,0,0,0,.55,1.16l2.72,4.69-6.35,1.76-6,2.31-1.24-1.33-1.21-2.39-.83-1.07-2-3.86-1.13-2h0a63.14,63.14,0,0,1-2.64-7.27l0-.11L95,26.75h0a48.52,48.52,0,0,1,.76-7.7l.11-.61L96.8,16a8.55,8.55,0,0,1,.62-1.25h0a14.63,14.63,0,0,1,5.4-5.11h0l4.41-2,5.41-2.11h0a87.73,87.73,0,0,1,14.9-3.79l.89-.14,6.85-.81A25.78,25.78,0,0,1,138.06.6h0a107,107,0,0,1,12.4.51h0A119.35,119.35,0,0,1,163.1,4.05l2.45.71,4.27,1.7,6.51,3.22h0A104.77,104.77,0,0,1,189.06,19h0a21.86,21.86,0,0,1,3.44,9.68l.06.67-.19,1.34a42.75,42.75,0,0,1-2.43,9.3h0l-2.16,3.85Z"/><path class="cls-2" d="M184.06,47.32c9.26,3.83,15.78,10.13,17.32,15.72"/><path class="cls-2" d="M115.87,44.93a125.73,125.73,0,0,1,30.07-3.43,129.72,129.72,0,0,1,26.74,2.66"/><path class="cls-2" d="M178.47,135.85c-3,2.26-17.83,3.54-33.55,3.54-15.44,0-28.19-1.34-31.5-3.54"/><path class="cls-2" d="M178.61,135.85s39-23.37,22.72-72.94"/><path class="cls-2" d="M113,58S84.25,31.35,99.44,11.51c0,0,45.06-27.9,87.35,5.12,0,0,19.66,15-13.55,43.12"/><path class="cls-2" d="M123.59,52.3s-18.93-18-9-30.94c0,0,29.42-18.21,57,3.35,0,0,13.38,11.56-8.3,29.92"/><path class="cls-1" d="M86.61,87.23C86.37,75.39,88.35,69.37,90.75,62,96.05,45.88,126,41.5,145.94,41.5c26.66,0,43.14,4,51.77,16.85,5.24,7.8,7.59,18.86,7.59,34.28,0,8.14-3.45,15-7.08,21.71-4.74,8.8-8,15.31-19.75,21.51-6.75,3.57-18.51,3.51-28.54,3.5-15.56,0-26.76.93-35.5-3-10.81-4.83-19.06-15.38-23.88-28.95A63.73,63.73,0,0,1,86.61,87.23Z"/><path class="cls-2" d="M98,75.79c9.26,3.82,15.78,10.12,17.32,15.71"/><path class="cls-2" d="M92.53,164.32s39-23.37,22.72-72.95"/><path class="cls-2" d="M90.55,62.74c1.38-5.17,5.07-10.07,13.46-13.82"/><path class="cls-2" d="M113.42,135.85S74.29,112.32,90.55,62.74"/><path class="cls-1" d="M99.28,75.79,94,74l-6.84-2.36h0a35.19,35.19,0,0,0,2.43-8.6h0a1,1,0,0,0,0-.42l-.36-1.49a22.6,22.6,0,0,0-3.68-8h0l-.59-.44a46.13,46.13,0,0,0-9.22-5.41h0c-.4-.17-.8-.33-1.21-.47l-4.19-1.74a14.24,14.24,0,0,0-3.06-.87l-3.37-.89a15.41,15.41,0,0,0-1.57-.26,48.26,48.26,0,0,0-7.11-.36h0a64.48,64.48,0,0,0-7.72.65h0c-1.76.25-3.5.59-5.23,1h0c-.84.21-1.67.45-2.5.72h0q-4.34,1.44-8.51,3.3l-.72.32h0a15.48,15.48,0,0,0-4.45,7h0a6.54,6.54,0,0,0-.27,2.56h0a35.15,35.15,0,0,0,2,8.93h0a7.23,7.23,0,0,0,.55,1.16L31.09,73,24.74,74.8l-6,2.32-1.25-1.33-1.2-2.4-.84-1.07-2-3.86-1.13-2h0a62.47,62.47,0,0,1-2.64-7.27l0-.1-.73-3.83h0a48.64,48.64,0,0,1,.76-7.71l.11-.61.92-2.4a8.08,8.08,0,0,1,.62-1.25h0a14.47,14.47,0,0,1,5.4-5.11h0l4.41-2L26.55,34h0a87.7,87.7,0,0,1,14.9-3.78l.9-.15,6.84-.8c.93-.11,1.85-.17,2.78-.19h0a111.59,111.59,0,0,1,12.4.51h0A119.35,119.35,0,0,1,77,32.51l2.45.71,4.27,1.7,6.51,3.22h0A104.77,104.77,0,0,1,103,47.5h0a21.78,21.78,0,0,1,3.44,9.68l.06.66-.19,1.34a42.6,42.6,0,0,1-2.43,9.3h0l-2.16,3.85Z"/><path class="cls-2" d="M29.79,73.39A126.12,126.12,0,0,1,59.85,70a129.75,129.75,0,0,1,26.74,2.65"/><path class="cls-2" d="M4.46,91.2C5.84,86,9.53,81.14,17.92,77.38"/><path class="cls-2" d="M92.38,164.32c-3,2.26-17.83,3.54-33.54,3.54-15.45,0-28.19-1.34-31.51-3.54"/><path class="cls-2" d="M27.33,164.32S-11.8,140.78,4.46,91.2"/><path class="cls-2" d="M26.93,86.47S-1.84,59.81,13.35,40c0,0,45.06-27.89,87.35,5.13,0,0,19.66,15-13.55,43.11"/><path class="cls-2" d="M37.5,80.77s-18.93-18-9-30.94c0,0,29.42-18.22,57,3.34,0,0,13.38,11.56-8.3,29.93"/><path class="cls-1" d="M.52,115.7C.28,103.86,2.26,97.83,4.67,90.5,10,74.34,39.9,70,59.85,70c26.66,0,43.14,4,51.78,16.85,5.23,7.79,7.58,18.86,7.58,34.27,0,8.15-3.44,15-7.08,21.72-4.74,8.8-8,15.31-19.75,21.51-6.75,3.57-18.51,3.5-28.54,3.49-15.56,0-26.76.94-35.5-3-10.81-4.83-19.06-15.37-23.88-29A63.66,63.66,0,0,1,.52,115.7Z"/></g></g></svg>