<svg xmlns="http://www.w3.org/2000/svg" viewBox="0 0 449.42 134.28"><defs><style>.cls-1{fill:#a5dce0;}.cls-1,.cls-2{stroke:#666;stroke-miterlimit:10;}.cls-2{fill:none;}</style></defs><title>yoga</title><g id="Layer_2" data-name="Layer 2"><g id="bong"><path class="cls-1" d="M1.22,106.14a23.62,23.62,0,0,1,2-12.32h0a23.59,23.59,0,0,1,4-6.16l1.28-1.44a38.78,38.78,0,0,1,9.25-7.52L20.68,77,145.81,4.91a31.48,31.48,0,0,1,12.86-4h0a31.5,31.5,0,0,1,7.94.26l.94.15a39.39,39.39,0,0,1,10.88,3.4h0a23.73,23.73,0,0,1,9.48,8.12l1.64,2.48a17.64,17.64,0,0,1,3,8.6l.32,4.67a17.09,17.09,0,0,1-2,9.25l-.12.23a39.48,39.48,0,0,1-9.14,11.23h0L448.05,52l-98.75,81.8L42,132.55l-9.73,0A24,24,0,0,1,25,131.36l-3.86-1.23a26.16,26.16,0,0,1-7.63-3.88l-.41-.31a31.81,31.81,0,0,1-8.32-9h0a24.35,24.35,0,0,1-3.45-10l-.08-.74"/><path class="cls-2" d="M.5,103.84C.56,88.08,15.1,75.37,33,75.44s32.3,12.9,32.24,28.66-14.6,28.48-32.46,28.41S.44,119.6.5,103.84"/><polyline class="cls-2" points="181.53 49.27 448.05 51.97 349.3 133.77 33.27 132.51"/><line class="cls-2" x1="181.53" y1="49.27" x2="51.42" y2="127.35"/><path class="cls-2" d="M17.1,79,151.69,1.52l0,0C166.25-2,194,3,193.92,27.5c0,8.91-4.88,16.82-12.35,21.82"/><path class="cls-2" d="M11.15,96.22c-1.34,12.13,3.46,22.75,16.21,24C37.89,121.31,45.05,117,46.17,107c.91-8.27-3.94-15.43-12.63-16.31-7.18-.72-13.61,4.22-14.37,11A10.41,10.41,0,0,0,28.77,113a8.81,8.81,0,0,0,9.79-7.54A7.1,7.1,0,0,0,32,97.77a6,6,0,0,0-6.68,5.13,4.85,4.85,0,0,0,4.46,5.25,4.09,4.09,0,0,0,4.55-3.5,3.3,3.3,0,0,0-3-3.58,2.79,2.79,0,0,0-3.1,2.39,2.25,2.25,0,0,0,2.07,2.44,1.9,1.9,0,0,0,2.11-1.63A1.53,1.53,0,0,0,31,102.61a1.3,1.3,0,0,0-1.44,1.11,1,1,0,0,0,1,1.13.89.89,0,0,0,1-.76.71.71,0,0,0-.66-.77.61.61,0,0,0-.67.52.48.48,0,0,0,.45.52.39.39,0,0,0,.45-.35.33.33,0,0,0-.3-.36.29.29,0,0,0-.31.24"/></g></g></svg>