<svg xmlns="http://www.w3.org/2000/svg" viewBox="0 0 1729 1297"><defs><style>.cls-1,.cls-8{fill:#8c6239;}.cls-1,.cls-3,.cls-5,.cls-6,.cls-7{stroke:#000;stroke-miterlimit:10;}.cls-2{fill:#f5e8d0;}.cls-3{fill:#f0ba7d;}.cls-4{fill:#cdc8ae;}.cls-5{fill:#c69c6d;}.cls-6{fill:none;}.cls-7{fill:#c7b299;}</style></defs><title>background2</title><g id="Layer_2" data-name="Layer 2"><g id="background"><rect class="cls-1" x="0.5" y="1198.72" width="1728" height="97.78"/><rect class="cls-2" x="0.5" y="0.5" width="1728" height="566.45"/><rect class="cls-3" x="451.5" y="0.5" width="539" height="202"/><rect class="cls-4" x="0.5" y="565.5" width="1728" height="633.22"/><path class="cls-5" d="M1468.34,915.32H263.59c-8.9,0-16.1-2.18-16.1,6.71l-1.9,23.73c0,8.89,9.1,15.93,18,15.93H1468.34a16.1,16.1,0,0,0,16.1-16.1l.09-21.31C1484.53,915.39,1477.23,915.32,1468.34,915.32Z"/><line class="cls-6" x1="0.5" y1="565.5" x2="1728.5" y2="565.5"/><polyline class="cls-1" points="131.39 856.5 131.39 1198.72 64.17 1296.5 0.5 1296.5 0.5 1045.78 130.63 856.5"/><line class="cls-1" x1="38.28" y1="856.5" x2="131.39" y2="856.5"/><line class="cls-1" x1="1728.5" y1="970.6" x2="1650.06" y2="856.5"/><polyline class="cls-1" points="1728.5 1106.04 1556.94 856.5 1556.94 1198.72 1624.17 1296.5 1728.5 1296.5 1728.5 1106.04"/><line class="cls-1" x1="1650.06" y1="856.5" x2="1556.94" y2="856.5"/><line class="cls-1" x1="856.44" y1="1198.72" x2="1556.94" y2="1198.72"/><path class="cls-1" d="M856.94,1198.72l-17.25,12.77a4.13,4.13,0,0,1-4.86,0l-17.89-12.81"/><polyline class="cls-1" points="126.39 1206 143.61 1198.72 143.61 1198.72 817.61 1198.72"/><polygon class="cls-5" points="1408.5 1104.22 1423.5 1125.5 1423.5 963.58 1408.5 942.3 1408.5 1104.22"/><polygon class="cls-5" points="318.5 1104.22 303.5 1125.5 303.5 963.58 318.5 942.3 318.5 1104.22"/><path class="cls-5" d="M247.49,919.5l-2,27.83v.17c-1.35,7.3,4.25,16.07,12.75,16.07H1470.78c6.54,0,12.57-4.65,13.75-10.15h0l.81-31.85"/><rect class="cls-5" x="273.5" y="963.57" width="30" height="161.93"/><rect class="cls-5" x="1423.5" y="963.57" width="30" height="161.93"/><polygon class="cls-7" points="1026.5 252.5 410.5 252.5 421.5 229.5 1019.5 229.5 1026.5 252.5"/><rect class="cls-7" x="410.5" y="252.5" width="616" height="12"/><polygon class="cls-7" points="990.5 0.5 990.5 202.5 451.5 202.5 451.5 0.5 421.5 0.5 421.5 229.5 1019.5 229.5 1019.5 0.5 990.5 0.5"/><polyline class="cls-7" points="730.5 0.5 730.5 202.5 711.5 202.5 711.5 0.5"/><line class="cls-6" x1="413.31" y1="246.7" x2="413.31" y2="0.49"/><line class="cls-6" x1="1024.75" y1="246.71" x2="1024.75" y2="0.5"/><polygon class="cls-8" points="1728.5 970.6 1728.5 1106.04 1556.94 856.5 1650.06 856.5 1728.5 970.6"/><polygon class="cls-1" points="0.5 1045.78 130.63 856.5 37.52 856.5 0.5 910.34 0.5 1045.78"/><path class="cls-5" d="M1319.49,717.45l-888.14.62a12.7,12.7,0,0,0-9.41,4.17L250.81,910.78a12.73,12.73,0,0,0,9.43,21.28H1472.8a12.73,12.73,0,0,0,9.89-20.74l-153.3-189.15A12.73,12.73,0,0,0,1319.49,717.45Z"/></g></g></svg>