<svg xmlns="http://www.w3.org/2000/svg" viewBox="0 0 105.05 184.75"><defs><style>.cls-1{fill:#ccc;opacity:0.71;}.cls-1,.cls-2,.cls-3{stroke:#000;stroke-miterlimit:10;}.cls-2{fill:#006837;}.cls-3{fill:none;}</style></defs><title>bong</title><g id="Layer_2" data-name="Layer 2"><g id="cocaine"><path class="cls-1" d="M63,184.22l-23.35,0a25.7,25.7,0,0,1-11.14-2.54l-4.21-2a34,34,0,0,1-8.2-5.53l-.63-.58-3.39-3.09A27.62,27.62,0,0,1,7.43,165l-.37-.58a36.5,36.5,0,0,1-4-8.62l-.65-2.07a31.84,31.84,0,0,1-1.29-6.1l-.33-3a18.88,18.88,0,0,1,0-4.25h0a36.24,36.24,0,0,1,3.4-11.56l2.47-5.08a24.58,24.58,0,0,1,4.13-6l3.2-3.46a24.4,24.4,0,0,1,4.62-3.87l5.26-3.4A23.75,23.75,0,0,1,29,104.46l3.26-1.13a2.21,2.21,0,0,0,1.5-2.09V7.4a2.23,2.23,0,0,0-.58-1.49L32.14,4.75a2.19,2.19,0,0,1-.54-1.83h0a2.2,2.2,0,0,1,1.76-1.84L33.63,1l.29,0L38.41.73,41.75.62,46.25.5H68.13a2.1,2.1,0,0,1,.56.07L70.41,1A2.2,2.2,0,0,1,72,2.73l0,.13a2.2,2.2,0,0,1-.54,1.93l-1,1.12a2.22,2.22,0,0,0-.57,1.49v93.47a2.22,2.22,0,0,0,1.34,2l1.24.53a60.18,60.18,0,0,1,12.35,7.11h0a49.21,49.21,0,0,1,10,10h0a43.79,43.79,0,0,1,5.64,10.11h0a30.25,30.25,0,0,1,1.84,7.11l.15,1.23a39.86,39.86,0,0,1,.11,9.39h0a28.5,28.5,0,0,1-1.3,6h0a41.92,41.92,0,0,1-4.53,9.45h0a42.6,42.6,0,0,1-8,9.21l-2.68,2.32a32.28,32.28,0,0,1-7.43,4.81l-2.45,1.15A31.27,31.27,0,0,1,63,184.22Z"/><ellipse class="cls-2" cx="94.66" cy="94.32" rx="0.75" ry="4.67" transform="translate(-33.68 131.55) rotate(-61.07)"/><ellipse class="cls-3" cx="51.79" cy="1.38" rx="19.96" ry="0.88"/><path class="cls-3" d="M31.83,1.38a5.49,5.49,0,0,0,0,4.29c0,.48,8.94.88,20,.88s20-.4,20-.88a4.78,4.78,0,0,0,0-4.29"/><line class="cls-3" x1="33.78" y1="102.81" x2="33.78" y2="6.55"/><line class="cls-3" x1="69.92" y1="6.55" x2="69.92" y2="102.81"/><path class="cls-3" d="M33.78,102.31C14.31,108.46.5,125.08.5,143.67s13.67,34.23,32.93,40.47a2.15,2.15,0,0,0,.71.11l35.41,0a2.35,2.35,0,0,0,.71-.11c19.2-6.27,32.82-22,32.82-40.44,0-12.93-6.7-24.92-17.33-33.09-.63-.49-1.28-1-2-1.42s-1.39-1-2.11-1.39a52,52,0,0,0-11.77-5.43"/><line class="cls-3" x1="91.99" y1="101.58" x2="86.35" y2="110.93"/><line class="cls-3" x1="83.39" y1="108.87" x2="89.19" y2="99.3"/><ellipse class="cls-3" cx="94.66" cy="94.32" rx="0.75" ry="4.67" transform="translate(-33.68 131.55) rotate(-61.07)"/><ellipse class="cls-3" cx="90.96" cy="100.23" rx="0.75" ry="2.84" transform="translate(-43.4 116.57) rotate(-54.71)"/><path class="cls-3" d="M90.57,92.06a66,66,0,0,0-1.11,7.13"/><path class="cls-3" d="M98.75,96.58s-3.64,3.69-6.32,4.63"/><path class="cls-3" d="M95.59,90.42s4.91-3.75,3.16-6.5-2-6.75.38-8.75"/><path class="cls-3" d="M94.66,86.92s-2.81-1.5-2.23-5.75,3,.5,3.16-6"/><path class="cls-3" d="M99.13,92.06s4.87-.39,5.37-3.89c.3-2.14-.77-2.79-1.65-3a2.25,2.25,0,0,1-1.71-1.71c-.26-1.11-.1-2.39,1.94-2.46"/></g></g></svg>