<svg xmlns="http://www.w3.org/2000/svg" viewBox="0 0 116.78 88.05"><defs><style>.cls-1,.cls-6{fill:#fff;}.cls-1,.cls-2,.cls-3,.cls-4,.cls-5,.cls-6,.cls-7{stroke:#000;stroke-miterlimit:10;}.cls-2{fill:#c1272d;}.cls-3{fill:#fbb03b;}.cls-4,.cls-5{fill:none;}.cls-5,.cls-7{stroke-width:0.25px;}.cls-6{stroke-width:0.5px;}</style></defs><title>cigs</title><g id="Layer_2" data-name="Layer 2"><g id="background"><g id="bad_habit"><g id="cigs"><polygon class="cls-1" points="33.69 52.94 30.21 35.61 56.85 16.3 97.43 22.09 111.54 48.05 116.19 71.27 97.88 74.94 71.38 80.26 46.94 85.16 35.92 61.38 18.36 75.27 13.35 70.39 33.69 52.94"/><polyline class="cls-2" points="19.85 13.5 84.37 0.56 96.03 21.44 56.85 16.3 30.21 35.61 33.69 52.94 32.49 53.97 24.5 36.72 19.85 13.5"/><polygon class="cls-3" points="18.36 75.27 18.6 76.25 11.27 82.52 5.87 87.15 5.49 86.11 4.58 84.55 3.17 82.79 0.9 81.06 2.81 79.42 10.14 73.14 13.35 70.39 14.54 70.96 16.3 72.19 17.53 73.81 18.36 75.27"/><rect class="cls-4" x="43.92" y="54.77" width="70.64" height="23.68" transform="translate(-11.55 16.88) rotate(-11.34)"/><polyline class="cls-4" points="24.5 36.72 19.85 13.5 84.37 0.56"/><line class="cls-4" x1="40.29" y1="57.64" x2="42.28" y2="61.95"/><line class="cls-4" x1="19.85" y1="13.5" x2="36.85" y2="50.23"/><line class="cls-4" x1="84.22" y1="0.59" x2="111.54" y2="48.05"/><line class="cls-4" x1="35.92" y1="61.38" x2="46.94" y2="85.16"/><line class="cls-4" x1="24.51" y1="36.72" x2="32.49" y2="53.97"/><line class="cls-4" x1="33.69" y1="52.94" x2="30.22" y2="35.61"/><line class="cls-4" x1="56.86" y1="16.3" x2="30.21" y2="35.57"/><line class="cls-4" x1="96.03" y1="21.44" x2="56.86" y2="16.3"/><line class="cls-5" x1="27.15" y1="28.76" x2="93.15" y2="15.52"/><line class="cls-5" x1="31.23" y1="51.25" x2="26.65" y2="28.39"/><ellipse class="cls-4" cx="3.15" cy="84.3" rx="0.99" ry="4.08" transform="translate(-51.81 20.3) rotate(-38.51)"/><line class="cls-4" x1="0.44" y1="81.45" x2="42.56" y2="45.33"/><line class="cls-4" x1="5.87" y1="87.15" x2="47.79" y2="51.21"/><path class="cls-4" d="M47.74,51.24c.39-.36-.32-2-1.8-3.71S42.88,45,42.5,45.38"/><path class="cls-4" d="M18.6,76.25c.38-.37-.32-2-1.81-3.72s-3-2.51-3.44-2.14"/><path class="cls-6" d="M73.88,6.92,35.05,14.71a1.65,1.65,0,0,0-.32,1.87h0c.28.6.93.93,2.2.68L75.76,9.47a1.59,1.59,0,0,0,.4-1.89h0C75.88,7,75.22,6.65,73.88,6.92Z"/><path d="M53,49.9l1.31-.26c.49,1,.73,1.42,1.21,2.34a3.46,3.46,0,0,0,.31.47,2.36,2.36,0,0,0,1.23.87,1.14,1.14,0,0,0,.37,0c.46-.08.52-.7.19-1.3l-.05-.09a6.21,6.21,0,0,0-1.09-1.48c-.72-.75-2-1.91-4.3-3.93a9.55,9.55,0,0,1-.9-.9,13.26,13.26,0,0,1-1.56-2.19,5.31,5.31,0,0,1-.56-3.5,1.45,1.45,0,0,1,2.28-.6l.54.37c-.05-.38-.09-.58-.16-1l.77-.16c1.09,2.35,1.21,2.72,2.16,4.5l-1.34.27c-.45-.85-.53-1-.93-1.83,0,0-.86-1.15-1.54-.91s-.13,1.34-.13,1.34.32.92,3.71,3.35a15.29,15.29,0,0,1,4.17,5,4.67,4.67,0,0,1,.61,3.26,2.56,2.56,0,0,1-.26.62.72.72,0,0,1-.45.33,2.09,2.09,0,0,1-2-.34c0,.29,0,.44.06.74l-.92.18C54.52,52.84,54.05,52,53,49.9Z"/><path d="M52.82,38.47c.31.67.46,1,.72,1.55l.57-.12c2.68,5.79,3.61,7.49,6.45,12.74l-.57.12.73,1.35,3-.61L63,52.16l-.38.07c-1.34-2.45-1.88-3.52-3.09-6l1.5-.3c1.21,2.49,1.75,3.56,3.09,6l-.36.08.73,1.34,3-.61c-.3-.55-.45-.81-.74-1.33l-.57.11c-2.87-5.21-3.83-7.06-6.47-12.74l.59-.13-.72-1.56-3,.61.68,1.53.38,0c1.12,2.43,1.51,3,2.64,5.25l-1.53.28c-1.13-2.25-1.52-2.8-2.65-5.24l.36-.07-.71-1.54Z"/><path d="M60.11,36.94c.29.66.43,1,.69,1.54l.57-.12C64,44.1,65,46,67.85,51.17l-.57.11L68,52.63l2.06-.41-.73-1.31L68.8,51c-2.19-4-3.26-6.56-5-9.91,2.5,3.68,3.85,6.35,7,11l1.41-.28c-2.11-4.75-2.53-6.79-4.36-11.32,2.09,3.91,2.78,5.83,5,9.73l-.57.09c.29.53.44.79.75,1.34L76.17,51c-.32-.54-.47-.8-.76-1.32l-.56.1c-2.9-5.19-3.91-7.21-6.5-12.85l.57-.1c-.27-.58-.4-.88-.68-1.53L65,36c1.31,3.86,1.67,4.46,2.92,7.85-1.94-3.25-2.61-3.74-4.64-7.51Z"/><path class="cls-7" d="M71.26,34.62c-1.68.34-1.38,3.82.88,8.6,2.15,4.54,5.42,7.56,7.11,7.22s1.15-3.88-1-8.45S73,34.28,71.26,34.62Zm7.29,13.05c.3.58.23,1.12-.2,1.21A1.54,1.54,0,0,1,77,48c-2.16-4-3.22-6.26-5.21-10.35-.29-.58-.18-1.17.25-1.26s1,.36,1.29.94C75.33,41.41,76.39,43.63,78.55,47.67Z"/><path class="cls-7" d="M74.36,34.12c.25.59.37.88.62,1.42l.57-.12a129.37,129.37,0,0,0,6.5,12.89l-.57.12c.29.51.45.77.76,1.3l3-.6c-.32-.52-.47-.77-.75-1.27l-.38.08c-1.37-2.45-1.84-3.54-3-6.12,1.76,2.45,2.5,3.49,4.43,5.8l-.25.05c.29.51.44.77.76,1.3l3-.61c-.32-.52-.48-.77-.76-1.27l-.47.09c-3.06-3.59-4.1-5.43-7-9.08-.1-1.52-.08-2.14-.11-3.75l.69-.12c-.24-.54-.36-.82-.59-1.41l-2.05.41c.23.59.34.87.58,1.4l.74-.15c-.06,2.23-.07,3.11,0,5.18-1-1.88-1.47-2.65-2.4-4.7l.53-.08c-.25-.54-.37-.81-.62-1.4Z"/><path class="cls-7" d="M81.41,32.67c.23.58.35.85.59,1.39l.54-.11a119.16,119.16,0,0,0,6.54,13l-.54.11c.29.51.45.77.78,1.31l5.5-1.11a36.72,36.72,0,0,1-2.53-4.63l-1.52.3c.66,1.37,1,2,1.75,3.33l-1.32.29a63.65,63.65,0,0,1-3-6.07l.77-.13.77,1.61,1.09-.22c-.85-1.81-1.28-2.77-2.25-4.56l-1.12.22c.35.64.53,1,.86,1.59l-.78.15c-1.14-2.25-1.79-3.22-2.84-5.58l1.3-.27c.55,1.23.81,1.73,1.43,2.91l1.54-.33a30.53,30.53,0,0,1-2-4.28Z"/></g></g></g></g></svg>