<svg xmlns="http://www.w3.org/2000/svg" viewBox="0 0 139.28 16.71"><defs><style>.cls-1,.cls-2,.cls-3{fill:#fff;}.cls-1{fill-rule:evenodd;}.cls-3{stroke:#fff;stroke-miterlimit:10;stroke-width:0.25px;}</style></defs><title>cocaine</title><g id="Layer_2" data-name="Layer 2"><g id="cocaine"><path class="cls-1" d="M16.27,11.48C14.82,10.35,15,10,16.14,8.57s4.17-1.74,6-2,3.21-1.55,5-2c2.68-.68,5.27,1.57,7.46-.11a5.31,5.31,0,0,1,2.28-1.21c1.31-.21,2.55.58,3.74,1.17,6.8,3.35,14.84.56,22.1-1.61a4.68,4.68,0,0,1,2.58-.25,6.79,6.79,0,0,1,1.88,1.12c3,2.06,6.93,1.94,10.48,1.26a22.53,22.53,0,0,0,8.66-3.2,10.79,10.79,0,0,1,3-1.3A8.33,8.33,0,0,1,92.46.6c8.79,1.75,9,2.62,17.68,5,3.57,1,17.39.43,18.54,3.95a2.24,2.24,0,0,1-.15,2.05,2.67,2.67,0,0,1-.86.66c-4.41,2.4-9.72,2.15-14.73,1.84l-11.68-.74c-4-.25-8-.49-11.87.31a99.44,99.44,0,0,1-10.75,1.43c-2.84.28-5.19-.59-8-1-4.12-.6-9.82.18-13.56.13-3.28,0-7.79-1.22-11.44-1.13-3.47.08-5.71,1.46-9.11,1.44-2.7,0-5.23-1.22-7.89-1.44-4-.33-8.06.15-12-1"/><path class="cls-2" d="M16.54,11.21l1.57-1.94A2.77,2.77,0,0,1,21,7.1c.56-.21,1.28-.17,1.87-.35,1.8-.55,3.7-1.86,5.58-1.93,1.47-.06,2.92.82,4.41.6a25.56,25.56,0,0,1,4.73-.66C41,4.74,44,6.27,47.5,6.33A37.31,37.31,0,0,0,58.07,4.58c2.5-.69,5.38-2.11,8-1.22.79.27,1.54,1.09,2.32,1.44,2.94,1.31,6.26,1,9.35.5a32.12,32.12,0,0,0,7.33-2.47c5.2-2.25,9.54-1.61,14.69-.07,4.69,1.4,9.2,3.25,14.11,3.68,2.83.24,5.68.35,8.49.78a11.56,11.56,0,0,1,3.31.7c1.7.87,1.68.1,1.74,2.34.06,2.42-1.55,2.45-3.72,3-8.6,2.3-18.79-.5-27.56-.57-4.15,0-8,.89-12.12,1.41a50,50,0,0,1-13.39-.44c-4.09-.53-8.15.08-12.24.13-4.28,0-8.49-1.28-12.76-1.13a28.4,28.4,0,0,0-4.68.78,22.29,22.29,0,0,1-9.85-.35c-4.75-1-9.63-.29-14.37-1.41-.47-.11-.67.61-.2.72,5,1.18,10.13.56,15.15,1.6,4.67,1,7.77.17,12.42-.39,5-.6,10,1.07,15,.9a98.59,98.59,0,0,1,16.2.78c4.06.51,8.36-.35,12.38-1,6.3-1,12.1-.74,18.44-.34,5,.32,10.23,1.06,15.23.45,1.86-.22,6.5-.81,7.53-2.79,2.16-4.16-5.1-5-7.38-5.32-2.84-.36-5.7-.44-8.54-.74-3.81-.4-7.41-1.79-11-2.95C98.57,1.57,94.48,0,90.94,0c-3.88,0-6.88,2.9-10.52,4A23.83,23.83,0,0,1,73,5c-3.2-.14-4.85-2.15-7.58-2.8C62.17,1.42,57.79,4,54.64,4.7c-4.21.93-8.24,1.35-12.38-.08C40.75,4.09,39.17,3,37.52,2.91c-2.45,0-3.54,1.71-6.37,1.62-1.41,0-2.63-.62-4.11-.32C24.9,4.64,23,5.9,20.82,6.38a11.91,11.91,0,0,0-4.05,1.19c-1.91,1.25-2.42,2.66-.76,4.17.36.32.89-.2.53-.53Z"/><circle class="cls-3" cx="6.64" cy="13.07" r="0.5"/><circle class="cls-3" cx="6.64" cy="11.07" r="0.5"/><circle class="cls-3" cx="6.64" cy="11.07" r="0.5"/><circle class="cls-3" cx="6.64" cy="11.07" r="0.5"/><circle class="cls-3" cx="6.64" cy="11.07" r="0.5"/><circle class="cls-3" cx="132.64" cy="13.07" r="0.5"/><circle class="cls-3" cx="16.64" cy="14.07" r="0.5"/><circle class="cls-3" cx="8.64" cy="11.07" r="0.5"/><circle class="cls-3" cx="4.64" cy="15.07" r="0.5"/><circle class="cls-3" cx="14.64" cy="13.07" r="0.5"/><circle class="cls-3" cx="8.64" cy="13.07" r="0.5"/><circle class="cls-3" cx="10.64" cy="12.07" r="0.5"/><circle class="cls-3" cx="9.64" cy="14.07" r="0.5"/><circle class="cls-3" cx="12.64" cy="14.07" r="0.5"/><circle class="cls-3" cx="12.64" cy="11.07" r="0.5"/><circle class="cls-3" cx="136.64" cy="14.07" r="0.5"/><circle class="cls-3" cx="131.64" cy="11.07" r="0.5"/><circle class="cls-3" cx="136.64" cy="16.07" r="0.5"/><circle class="cls-3" cx="128.64" cy="15.07" r="0.5"/><circle class="cls-3" cx="131.64" cy="15.07" r="0.5"/><circle class="cls-3" cx="133.64" cy="10.07" r="0.5"/><circle class="cls-3" cx="134.64" cy="13.07" r="0.5"/><circle class="cls-3" cx="126.64" cy="14.07" r="0.5"/><circle class="cls-3" cx="124.64" cy="15.07" r="0.5"/><circle class="cls-3" cx="121.14" cy="15.56"/><circle class="cls-3" cx="133.64" cy="15.07" r="0.5"/><circle class="cls-3" cx="130.64" cy="13.07" r="0.5"/><circle class="cls-3" cx="139.14" cy="14.56"/><circle class="cls-3" cx="135.14" cy="11.56"/><circle class="cls-3" cx="130.14" cy="10.56"/><circle class="cls-3" cx="131.14" cy="15.56"/><circle class="cls-3" cx="129.14" cy="13.56"/><circle class="cls-3" cx="128.14" cy="16.56"/><circle class="cls-3" cx="124.14" cy="16.56"/><circle class="cls-3" cx="132.14" cy="16.56"/><circle class="cls-3" cx="126.14" cy="15.56"/><circle class="cls-3" cx="11.64" cy="8.07" r="0.5"/><circle class="cls-3" cx="10.64" cy="12.07" r="0.5"/><circle class="cls-3" cx="4.64" cy="13.07" r="0.5"/><circle class="cls-3" cx="13.64" cy="9.07" r="0.5"/><circle class="cls-3" cx="10.64" cy="10.07" r="0.5"/><circle class="cls-3" cx="2.64" cy="14.07" r="0.5"/><circle class="cls-3" cx="6.14" cy="14.56"/><circle class="cls-3" cx="8.14" cy="10.56"/><circle class="cls-3" cx="7.14" cy="13.56"/><circle class="cls-3" cx="0.14" cy="13.56"/><circle class="cls-3" cx="4.14" cy="11.56"/><circle class="cls-3" cx="3.14" cy="12.56"/><circle class="cls-3" cx="7.14" cy="12.56"/><circle class="cls-3" cx="11.14" cy="13.56"/><circle class="cls-3" cx="130.14" cy="16.56"/></g></g></svg>