<svg xmlns="http://www.w3.org/2000/svg" viewBox="0 0 128.7 88.76"><defs><style>.cls-1{fill:#999;}.cls-1,.cls-2,.cls-3{stroke:#666;stroke-miterlimit:10;}.cls-2{fill:#ccc;}.cls-3{fill:#f2f2f2;}</style></defs><title>rehab</title><g id="Layer_2" data-name="Layer 2"><g id="cocaine"><polygon class="cls-1" points="127.68 68.03 82.92 88.16 0.98 27.01 45.74 6.88 127.68 68.03"/><polygon class="cls-2" points="127.77 65 82.92 88.16 0.98 27.01 45.83 3.85 127.77 65"/><polygon class="cls-3" points="127.77 61.75 84.04 88.16 2.1 27.01 45.83 0.6 127.77 61.75"/><path d="M19.51,29.67l1.82-1.07a3.63,3.63,0,0,1,3.07.15,19.07,19.07,0,0,1,4.53,2.67,8.8,8.8,0,0,1,2,2.08c.39.62.59,1.24.2,1.56,1.61.23,3.19.9,10.95,4.62l-1.43.82c-7.87-3.78-6.86-2.62-10.92-4.62,3.32,2.45,1.81,1.44,9,5.72l-1.41.81C22.51,33.6,31.58,39.59,19.51,29.67Zm9.21,5.42c.52-.32.71-.69.59-1.08A3.79,3.79,0,0,0,28,32.53c-.44-.34-.86-.64-1.25-.9a7.46,7.46,0,0,0-1.14-.6,2.7,2.7,0,0,0-.95-.24,1.24,1.24,0,0,0-.75.19l-.22.14C26.43,33.38,26.78,33.65,28.72,35.09Z"/><path d="M25.23,26.3c1.47-.87,2.2-1.3,3.65-2.18l2.6,2.1-2.21,1.41c2.51,2,3,2.42,4.88,3.85l2-1.23,1.55,1.17-2,1.2a61.81,61.81,0,0,0,5.47,3.53l2.39-1.3,3.41,2L43.2,39.05C29,30.56,36.38,35.35,25.23,26.3Z"/><path d="M30.14,23.37l1.37-.82c4,3.2,4.58,3.69,6.88,5.48l2-1.24c-2.33-1.81-3-2.35-6.85-5.45l1.36-.82c9.77,7.74,5,4.81,18.16,12.81l-1.39.82c-6.61-4-7-4-9.5-6l-2,1.21c2.21,1.72,2.73,1.92,9.44,6l-1.39.81C34.49,27.91,40.57,31.74,30.14,23.37Z"/><path d="M37.89,18.7,39,18.05c10.11,6.72,7,4.34,20.44,11.55L58,30.41c-2.62-1.43-3.55-1.86-5.19-2.64l-2.13,1.14c1.34,1,2.13,1.53,4.5,3.16l-1.34.79C41.64,24.36,46.39,26.61,37.89,18.7Zm12.94,8.11c-1.13-.56-1.62-.8-2.73-1.46-1.87-1.11-3.79-2.44-5.94-4,.93.83,1.74,1.59,2.58,2.39s1.85,1.76,2.72,2.55c.65.59.94.85,1.64,1.4Z"/><path d="M41.91,16.24l1.84-1.12c1.44-.89,4.09.15,6.93,2.43a10.15,10.15,0,0,1,2.13,2.11,1.92,1.92,0,0,1,.28,1.61,8,8,0,0,1,2.72.5,18.76,18.76,0,0,1,2.77,1.39c3,1.74,5,3.94,3.43,4.89L60.2,29.12C47.77,21.42,50.8,23.15,41.91,16.24Zm8.84,5.22c.53-.33.7-.72.51-1.14a6.62,6.62,0,0,0-1.81-1.89c-1.71-1.37-3.11-1.92-3.88-1.42l-.1.06-.06,0s0,0,0,.05C47.79,19.08,48.58,19.74,50.75,21.46Zm7.73,5.07c.59-.33.72-.72.47-1.12A6.26,6.26,0,0,0,57,23.91a11.17,11.17,0,0,0-2.5-1.19,2.43,2.43,0,0,0-1.86.19A52.66,52.66,0,0,0,58.48,26.53Z"/></g></g></svg>