<svg xmlns="http://www.w3.org/2000/svg" viewBox="0 0 83 154"><defs><style>.cls-1{fill:#29abe2;opacity:0.12;}.cls-1,.cls-2{stroke:#000;stroke-miterlimit:10;}.cls-2{fill:none;}</style></defs><title>water</title><g id="Layer_2" data-name="Layer 2"><g id="water"><polygon class="cls-1" points="70.5 148.5 66.11 151.15 57.75 153.5 43.25 153.5 28.85 153 17.5 151.31 12.5 148.5 3.5 44.5 11.49 41.44 22.5 40.17 39.5 39.5 54.5 39.5 71.43 41.42 78.25 43.23 70.5 148.5"/><ellipse class="cls-2" cx="41.5" cy="6.5" rx="41" ry="6"/><ellipse class="cls-2" cx="41.5" cy="148.5" rx="29" ry="5"/><line class="cls-2" x1="0.5" y1="6.5" x2="12.5" y2="148.5"/><line class="cls-2" x1="82.5" y1="6.5" x2="70.5" y2="148.5"/><ellipse class="cls-2" cx="41.5" cy="44.5" rx="38" ry="5"/><path class="cls-2" d="M47.5,44.5s5-2,8-1a10.56,10.56,0,0,0,6,0"/><path class="cls-2" d="M17.5,45.5s4,1,5,0,4-3,5-2"/></g></g></svg>